<?xml version="1.0" encoding="UTF-8"?>
<svg width="20px" height="21px" viewBox="0 0 20 21" version="1.1" xmlns="http://www.w3.org/2000/svg" xmlns:xlink="http://www.w3.org/1999/xlink">
    <title>Combined Shape</title>
    <g id="Page-1" stroke="none" stroke-width="1" fill="none" fill-rule="evenodd">
        <g id="alien" transform="translate(0.000250, 0.002250)" fill="#757575" fill-rule="nonzero">
            <path d="M0.58575,0.58575 C1.36675,-0.19525 2.63275,-0.19525 3.41375,0.58575 C3.93675,1.10775 4.10075,1.84575 3.92475,2.51075 L3.92475,2.51075 L4.96075,3.54675 C6.39975,2.57075 8.13375,1.99975 9.99975,1.99975 C11.86575,1.99975 13.59975,2.57075 15.03875,3.54675 L15.03875,3.54675 L16.07475,2.51075 C15.89775,1.84575 16.06375,1.10775 16.58575,0.58575 C17.36675,-0.19525 18.63275,-0.19525 19.41375,0.58575 C20.19475,1.36675 20.19475,2.63275 19.41375,3.41375 C18.89175,3.93575 18.15475,4.10075 17.48875,3.92275 L17.48875,3.92275 L16.55775,4.85475 C18.06675,6.46575 18.99975,8.62275 18.99975,10.99875 L18.99975,10.99875 L18.99975,17.49875 C18.99975,19.42875 17.42975,20.99875 15.49975,20.99875 C14.56475,20.99875 13.68575,20.63475 13.02475,19.97375 C12.86175,19.81075 12.72475,19.64875 12.60975,19.48675 C12.04275,20.69475 10.95375,20.99975 9.99975,20.99975 C9.03675,20.99975 7.93775,20.68775 7.37475,19.44775 C6.76675,20.42575 5.75075,20.99975 4.49975,20.99975 C2.56975,20.99975 0.99975,19.42975 0.99975,17.49975 L0.99975,17.49975 L0.99975,10.99975 C0.99975,8.62375 1.93275,6.46675 3.44175,4.85675 L3.44175,4.85675 L2.51075,3.92475 C1.84475,4.10075 1.10775,3.93575 0.58575,3.41375 C-0.19525,2.63275 -0.19525,1.36675 0.58575,0.58575 Z M9.99775,3.99975 C6.13775,3.99975 2.99775,7.13975 2.99775,10.99975 L2.99775,10.99975 L2.99775,17.49975 C2.99775,18.32675 3.67075,18.99975 4.49775,18.99975 C5.36975,18.99975 5.88175,18.44075 5.98075,17.38375 C6.05575,16.59375 6.70775,15.99975 7.49875,15.99975 C8.33475,15.99975 8.98975,16.64575 8.99875,17.44075 C9.01475,18.89175 9.40475,18.99975 9.99875,18.99975 C10.58875,18.99975 10.97775,18.89475 10.99875,17.48275 C11.01175,16.66475 11.68775,15.99975 12.50475,15.99975 C13.33875,15.99975 13.97975,16.62175 14.00275,17.41575 C14.01875,17.95475 14.08675,18.20875 14.43875,18.56075 C14.72275,18.84375 15.09975,18.99975 15.49975,18.99975 C16.32675,18.99975 16.99975,18.32675 16.99975,17.49975 L16.99975,17.49975 L16.99775,17.49975 L16.99775,10.99975 C16.99775,7.13975 13.85775,3.99975 9.99775,3.99975 Z M9.99975,5.99975 C12.20575,5.99975 13.99975,7.79375 13.99975,9.99975 C13.99975,12.20575 12.20575,13.99975 9.99975,13.99975 C7.79375,13.99975 5.99975,12.20575 5.99975,9.99975 C5.99975,7.79375 7.79375,5.99975 9.99975,5.99975 Z M9.99975,7.99975 C8.89675,7.99975 7.99975,8.89675 7.99975,9.99975 C7.99975,11.10275 8.89675,11.99975 9.99975,11.99975 C11.10275,11.99975 11.99975,11.10175 11.99975,9.99975 C11.99975,8.89675 11.10275,7.99975 9.99975,7.99975 Z" id="Combined-Shape"></path>
        </g>
    </g>
</svg>