<?xml version="1.0" encoding="utf-8"?>
<!-- Generator: Adobe Illustrator 26.5.0, SVG Export Plug-In . SVG Version: 6.00 Build 0)  -->
<svg version="1.1" id="Ebene_1" xmlns="http://www.w3.org/2000/svg" xmlns:xlink="http://www.w3.org/1999/xlink" x="0px" y="0px"
	 width="538.6px" height="538.6px" viewBox="0 0 538.6 538.6" style="enable-background:new 0 0 538.6 538.6;" xml:space="preserve"
	>
<style type="text/css">
	.st0{fill:#CBFFFF;}
	.st1{fill:#4C4C4C;}
	.st2{fill:#FFFFFF;}
	.st3{fill:#EDB650;}
</style>
<rect class="st0" width="538.6" height="538.6"/>
<rect x="28.3" class="st1" width="28.3" height="28.3"/>
<rect x="56.7" class="st1" width="28.3" height="28.3"/>
<rect x="85" class="st1" width="28.3" height="28.3"/>
<rect x="113.4" class="st1" width="28.3" height="28.3"/>
<rect x="141.7" class="st1" width="28.3" height="28.3"/>
<rect x="170.1" class="st1" width="28.3" height="28.3"/>
<rect x="198.4" class="st1" width="28.3" height="28.3"/>
<rect x="226.8" class="st1" width="28.3" height="28.3"/>
<rect x="255.1" class="st1" width="28.3" height="28.3"/>
<rect x="283.5" class="st1" width="28.3" height="28.3"/>
<rect x="311.8" class="st1" width="28.3" height="28.3"/>
<rect x="340.2" class="st1" width="28.3" height="28.3"/>
<rect x="368.5" class="st1" width="28.3" height="28.3"/>
<rect x="396.9" class="st1" width="28.3" height="28.3"/>
<rect x="425.2" class="st1" width="28.3" height="28.3"/>
<rect x="453.5" class="st1" width="28.3" height="28.3"/>
<rect x="481.9" class="st1" width="28.3" height="28.3"/>
<rect x="28.3" y="28.3" class="st1" width="28.3" height="28.3"/>
<rect x="56.7" y="28.3" class="st1" width="28.3" height="28.3"/>
<rect x="85" y="28.3" class="st1" width="28.3" height="28.3"/>
<rect x="113.4" y="28.3" class="st1" width="28.3" height="28.3"/>
<rect x="141.7" y="28.3" class="st1" width="28.3" height="28.3"/>
<rect x="170.1" y="28.3" class="st1" width="28.3" height="28.3"/>
<rect x="198.4" y="28.3" class="st1" width="28.3" height="28.3"/>
<rect x="226.8" y="28.3" class="st1" width="28.3" height="28.3"/>
<rect x="255.1" y="28.3" class="st1" width="28.3" height="28.3"/>
<rect x="283.5" y="28.3" class="st1" width="28.3" height="28.3"/>
<rect x="311.8" y="28.3" class="st1" width="28.3" height="28.3"/>
<rect x="340.2" y="28.3" class="st1" width="28.3" height="28.3"/>
<rect x="368.5" y="28.3" class="st1" width="28.3" height="28.3"/>
<rect x="396.9" y="28.3" class="st1" width="28.3" height="28.3"/>
<rect x="425.2" y="28.3" class="st1" width="28.3" height="28.3"/>
<rect x="453.5" y="28.3" class="st1" width="28.3" height="28.3"/>
<rect x="481.9" y="28.3" class="st1" width="28.3" height="28.3"/>
<rect x="28.3" y="56.7" class="st1" width="28.3" height="28.3"/>
<rect x="56.7" y="56.7" class="st1" width="28.3" height="28.3"/>
<rect x="85" y="56.7" class="st1" width="28.3" height="28.3"/>
<rect x="113.4" y="56.7" class="st1" width="28.3" height="28.3"/>
<rect x="141.7" y="56.7" class="st1" width="28.3" height="28.3"/>
<rect x="170.1" y="56.7" class="st1" width="28.3" height="28.3"/>
<rect x="198.4" y="56.7" class="st1" width="28.3" height="28.3"/>
<rect x="226.8" y="56.7" class="st1" width="28.3" height="28.3"/>
<rect x="255.1" y="56.7" class="st1" width="28.3" height="28.3"/>
<rect x="283.5" y="56.7" class="st1" width="28.3" height="28.3"/>
<rect x="311.8" y="56.7" class="st1" width="28.3" height="28.3"/>
<rect x="340.2" y="56.7" class="st1" width="28.3" height="28.3"/>
<rect x="368.5" y="56.7" class="st1" width="28.3" height="28.3"/>
<rect x="396.9" y="56.7" class="st1" width="28.3" height="28.3"/>
<rect x="425.2" y="56.7" class="st1" width="28.3" height="28.3"/>
<rect x="453.5" y="56.7" class="st1" width="28.3" height="28.3"/>
<rect x="481.9" y="56.7" class="st1" width="28.3" height="28.3"/>
<rect x="28.3" y="85" class="st1" width="28.3" height="28.3"/>
<rect x="56.7" y="85" class="st1" width="28.3" height="28.3"/>
<rect x="85" y="85" class="st1" width="28.3" height="28.3"/>
<rect x="113.4" y="85" class="st1" width="28.3" height="28.3"/>
<rect x="141.7" y="85" class="st2" width="28.3" height="28.3"/>
<rect x="170.1" y="85" class="st2" width="28.3" height="28.3"/>
<rect x="198.4" y="85" class="st2" width="28.3" height="28.3"/>
<rect x="226.8" y="85" class="st1" width="28.3" height="28.3"/>
<rect x="255.1" y="85" class="st1" width="28.3" height="28.3"/>
<rect x="283.5" y="85" class="st1" width="28.3" height="28.3"/>
<rect x="311.8" y="85" class="st2" width="28.3" height="28.3"/>
<rect x="340.2" y="85" class="st2" width="28.3" height="28.3"/>
<rect x="368.5" y="85" class="st2" width="28.3" height="28.3"/>
<rect x="396.9" y="85" class="st1" width="28.3" height="28.3"/>
<rect x="425.2" y="85" class="st1" width="28.3" height="28.3"/>
<rect x="453.5" y="85" class="st1" width="28.3" height="28.3"/>
<rect x="481.9" y="85" class="st1" width="28.3" height="28.3"/>
<rect x="28.3" y="113.4" class="st1" width="28.3" height="28.3"/>
<rect x="56.7" y="113.4" class="st1" width="28.3" height="28.3"/>
<rect x="85" y="113.4" class="st1" width="28.3" height="28.3"/>
<rect x="113.4" y="113.4" class="st1" width="28.3" height="28.3"/>
<rect x="141.7" y="113.4" class="st2" width="28.3" height="28.3"/>
<rect x="170.1" y="113.4" width="28.3" height="28.3"/>
<rect x="198.4" y="113.4" class="st2" width="28.3" height="28.3"/>
<rect x="226.8" y="113.4" class="st1" width="28.3" height="28.3"/>
<rect x="255.1" y="113.4" class="st1" width="28.3" height="28.3"/>
<rect x="283.5" y="113.4" class="st1" width="28.3" height="28.3"/>
<rect x="311.8" y="113.4" class="st2" width="28.3" height="28.3"/>
<rect x="340.2" y="113.4" width="28.3" height="28.3"/>
<rect x="368.5" y="113.4" class="st2" width="28.3" height="28.3"/>
<rect x="396.9" y="113.4" class="st1" width="28.3" height="28.3"/>
<rect x="425.2" y="113.4" class="st1" width="28.3" height="28.3"/>
<rect x="453.5" y="113.4" class="st1" width="28.3" height="28.3"/>
<rect x="481.9" y="113.4" class="st1" width="28.3" height="28.3"/>
<rect x="28.3" y="141.7" class="st1" width="28.3" height="28.3"/>
<rect x="56.7" y="141.7" class="st1" width="28.3" height="28.3"/>
<rect x="85" y="141.7" class="st1" width="28.3" height="28.3"/>
<rect x="113.4" y="141.7" class="st1" width="28.3" height="28.3"/>
<rect x="141.7" y="141.7" class="st2" width="28.3" height="28.3"/>
<rect x="170.1" y="141.7" width="28.3" height="28.3"/>
<rect x="198.4" y="141.7" class="st2" width="28.3" height="28.3"/>
<rect x="226.8" y="141.7" class="st1" width="28.3" height="28.3"/>
<rect x="255.1" y="141.7" class="st1" width="28.3" height="28.3"/>
<rect x="283.5" y="141.7" class="st1" width="28.3" height="28.3"/>
<rect x="311.8" y="141.7" class="st2" width="28.3" height="28.3"/>
<rect x="340.2" y="141.7" width="28.3" height="28.3"/>
<rect x="368.5" y="141.7" class="st2" width="28.3" height="28.3"/>
<rect x="396.9" y="141.7" class="st1" width="28.3" height="28.3"/>
<rect x="425.2" y="141.7" class="st1" width="28.3" height="28.3"/>
<rect x="453.5" y="141.7" class="st1" width="28.3" height="28.3"/>
<rect x="481.9" y="141.7" class="st1" width="28.3" height="28.3"/>
<rect y="170.1" width="28.3" height="28.3"/>
<rect x="28.3" y="170.1" width="28.3" height="28.3"/>
<rect x="56.7" y="170.1" width="28.3" height="28.3"/>
<rect x="85" y="170.1" class="st1" width="28.3" height="28.3"/>
<rect x="113.4" y="170.1" class="st1" width="28.3" height="28.3"/>
<rect x="141.7" y="170.1" class="st2" width="28.3" height="28.3"/>
<rect x="170.1" y="170.1" class="st2" width="28.3" height="28.3"/>
<rect x="198.4" y="170.1" class="st2" width="28.3" height="28.3"/>
<rect x="226.8" y="170.1" class="st1" width="28.3" height="28.3"/>
<rect x="255.1" y="170.1" class="st1" width="28.3" height="28.3"/>
<rect x="283.5" y="170.1" class="st1" width="28.3" height="28.3"/>
<rect x="311.8" y="170.1" class="st2" width="28.3" height="28.3"/>
<rect x="340.2" y="170.1" class="st2" width="28.3" height="28.3"/>
<rect x="368.5" y="170.1" class="st2" width="28.3" height="28.3"/>
<rect x="396.9" y="170.1" class="st1" width="28.3" height="28.3"/>
<rect x="425.2" y="170.1" class="st1" width="28.3" height="28.3"/>
<rect x="453.5" y="170.1" width="28.3" height="28.3"/>
<rect x="481.9" y="170.1" width="28.3" height="28.3"/>
<rect x="510.2" y="170.1" width="28.3" height="28.3"/>
<rect y="198.4" width="28.3" height="28.3"/>
<rect x="28.3" y="198.4" width="28.3" height="28.3"/>
<rect x="56.7" y="198.4" width="28.3" height="28.3"/>
<rect x="85" y="198.4" class="st1" width="28.3" height="28.3"/>
<rect x="113.4" y="198.4" class="st1" width="28.3" height="28.3"/>
<rect x="141.7" y="198.4" class="st2" width="28.3" height="28.3"/>
<rect x="170.1" y="198.4" class="st2" width="28.3" height="28.3"/>
<rect x="198.4" y="198.4" class="st3" width="28.3" height="28.3"/>
<rect x="226.8" y="198.4" class="st3" width="28.3" height="28.3"/>
<rect x="255.1" y="198.4" class="st3" width="28.3" height="28.3"/>
<rect x="283.5" y="198.4" class="st3" width="28.3" height="28.3"/>
<rect x="311.8" y="198.4" class="st3" width="28.3" height="28.3"/>
<rect x="340.2" y="198.4" class="st2" width="28.3" height="28.3"/>
<rect x="368.5" y="198.4" class="st2" width="28.3" height="28.3"/>
<rect x="396.9" y="198.4" class="st1" width="28.3" height="28.3"/>
<rect x="425.2" y="198.4" class="st1" width="28.3" height="28.3"/>
<rect x="453.5" y="198.4" width="28.3" height="28.3"/>
<rect x="481.9" y="198.4" width="28.3" height="28.3"/>
<rect x="510.2" y="198.4" width="28.3" height="28.3"/>
<rect y="226.8" width="28.3" height="28.3"/>
<rect x="28.3" y="226.8" width="28.3" height="28.3"/>
<rect x="56.7" y="226.8" width="28.3" height="28.3"/>
<rect x="85" y="226.8" class="st1" width="28.3" height="28.3"/>
<rect x="113.4" y="226.8" class="st1" width="28.3" height="28.3"/>
<rect x="141.7" y="226.8" class="st2" width="28.3" height="28.3"/>
<rect x="170.1" y="226.8" class="st2" width="28.3" height="28.3"/>
<rect x="198.4" y="226.8" class="st2" width="28.3" height="28.3"/>
<rect x="226.8" y="226.8" class="st3" width="28.3" height="28.3"/>
<rect x="255.1" y="226.8" class="st3" width="28.3" height="28.3"/>
<rect x="283.5" y="226.8" class="st3" width="28.3" height="28.3"/>
<rect x="311.8" y="226.8" class="st2" width="28.3" height="28.3"/>
<rect x="340.2" y="226.8" class="st2" width="28.3" height="28.3"/>
<rect x="368.5" y="226.8" class="st2" width="28.3" height="28.3"/>
<rect x="396.9" y="226.8" class="st1" width="28.3" height="28.3"/>
<rect x="425.2" y="226.8" class="st1" width="28.3" height="28.3"/>
<rect x="453.5" y="226.8" width="28.3" height="28.3"/>
<rect x="481.9" y="226.8" width="28.3" height="28.3"/>
<rect x="510.2" y="226.8" width="28.3" height="28.3"/>
<rect y="255.1" width="28.3" height="28.3"/>
<rect x="28.3" y="255.1" width="28.3" height="28.3"/>
<rect x="56.7" y="255.1" width="28.3" height="28.3"/>
<rect x="85" y="255.1" class="st1" width="28.3" height="28.3"/>
<rect x="113.4" y="255.1" class="st1" width="28.3" height="28.3"/>
<rect x="141.7" y="255.1" class="st2" width="28.3" height="28.3"/>
<rect x="170.1" y="255.1" class="st2" width="28.3" height="28.3"/>
<rect x="198.4" y="255.1" class="st2" width="28.3" height="28.3"/>
<rect x="226.8" y="255.1" class="st2" width="28.3" height="28.3"/>
<rect x="255.1" y="255.1" class="st2" width="28.3" height="28.3"/>
<rect x="283.5" y="255.1" class="st2" width="28.3" height="28.3"/>
<rect x="311.8" y="255.1" class="st2" width="28.3" height="28.3"/>
<rect x="340.2" y="255.1" class="st2" width="28.3" height="28.3"/>
<rect x="368.5" y="255.1" class="st2" width="28.3" height="28.3"/>
<rect x="396.9" y="255.1" class="st1" width="28.3" height="28.3"/>
<rect x="425.2" y="255.1" class="st1" width="28.3" height="28.3"/>
<rect x="453.5" y="255.1" width="28.3" height="28.3"/>
<rect x="481.9" y="255.1" width="28.3" height="28.3"/>
<rect x="510.2" y="255.1" width="28.3" height="28.3"/>
<rect y="311.8" width="28.3" height="28.3"/>
<rect x="28.3" y="311.8" width="28.3" height="28.3"/>
<rect x="56.7" y="311.8" width="28.3" height="28.3"/>
<rect x="85" y="311.8" class="st1" width="28.3" height="28.3"/>
<rect x="113.4" y="311.8" class="st1" width="28.3" height="28.3"/>
<rect x="141.7" y="311.8" class="st2" width="28.3" height="28.3"/>
<rect x="170.1" y="311.8" class="st2" width="28.3" height="28.3"/>
<rect x="198.4" y="311.8" class="st2" width="28.3" height="28.3"/>
<rect x="226.8" y="311.8" class="st2" width="28.3" height="28.3"/>
<rect x="255.1" y="311.8" class="st2" width="28.3" height="28.3"/>
<rect x="283.5" y="311.8" class="st2" width="28.3" height="28.3"/>
<rect x="311.8" y="311.8" class="st2" width="28.3" height="28.3"/>
<rect x="340.2" y="311.8" class="st2" width="28.3" height="28.3"/>
<rect x="368.5" y="311.8" class="st2" width="28.3" height="28.3"/>
<rect x="396.9" y="311.8" class="st1" width="28.3" height="28.3"/>
<rect x="425.2" y="311.8" class="st1" width="28.3" height="28.3"/>
<rect x="453.5" y="311.8" width="28.3" height="28.3"/>
<rect x="481.9" y="311.8" width="28.3" height="28.3"/>
<rect x="510.2" y="311.8" width="28.3" height="28.3"/>
<rect y="368.5" width="28.3" height="28.3"/>
<rect x="28.3" y="368.5" width="28.3" height="28.3"/>
<rect x="56.7" y="368.5" width="28.3" height="28.3"/>
<rect x="85" y="368.5" class="st1" width="28.3" height="28.3"/>
<rect x="113.4" y="368.5" class="st1" width="28.3" height="28.3"/>
<rect x="141.7" y="368.5" class="st2" width="28.3" height="28.3"/>
<rect x="170.1" y="368.5" class="st2" width="28.3" height="28.3"/>
<rect x="198.4" y="368.5" class="st2" width="28.3" height="28.3"/>
<rect x="226.8" y="368.5" class="st2" width="28.3" height="28.3"/>
<rect x="255.1" y="368.5" class="st2" width="28.3" height="28.3"/>
<rect x="283.5" y="368.5" class="st2" width="28.3" height="28.3"/>
<rect x="311.8" y="368.5" class="st2" width="28.3" height="28.3"/>
<rect x="340.2" y="368.5" class="st2" width="28.3" height="28.3"/>
<rect x="368.5" y="368.5" class="st2" width="28.3" height="28.3"/>
<rect x="396.9" y="368.5" class="st1" width="28.3" height="28.3"/>
<rect x="425.2" y="368.5" class="st1" width="28.3" height="28.3"/>
<rect x="453.5" y="368.5" width="28.3" height="28.3"/>
<rect x="481.9" y="368.5" width="28.3" height="28.3"/>
<rect x="510.2" y="368.5" width="28.3" height="28.3"/>
<rect y="283.5" width="28.3" height="28.3"/>
<rect x="28.3" y="283.5" width="28.3" height="28.3"/>
<rect x="56.7" y="283.5" width="28.3" height="28.3"/>
<rect x="85" y="283.5" class="st1" width="28.3" height="28.3"/>
<rect x="113.4" y="283.5" class="st1" width="28.3" height="28.3"/>
<rect x="141.7" y="283.5" class="st2" width="28.3" height="28.3"/>
<rect x="170.1" y="283.5" class="st2" width="28.3" height="28.3"/>
<rect x="198.4" y="283.5" class="st2" width="28.3" height="28.3"/>
<rect x="226.8" y="283.5" class="st2" width="28.3" height="28.3"/>
<rect x="255.1" y="283.5" class="st2" width="28.3" height="28.3"/>
<rect x="283.5" y="283.5" class="st2" width="28.3" height="28.3"/>
<rect x="311.8" y="283.5" class="st2" width="28.3" height="28.3"/>
<rect x="340.2" y="283.5" class="st2" width="28.3" height="28.3"/>
<rect x="368.5" y="283.5" class="st2" width="28.3" height="28.3"/>
<rect x="396.9" y="283.5" class="st1" width="28.3" height="28.3"/>
<rect x="425.2" y="283.5" class="st1" width="28.3" height="28.3"/>
<rect x="453.5" y="283.5" width="28.3" height="28.3"/>
<rect x="481.9" y="283.5" width="28.3" height="28.3"/>
<rect x="510.2" y="283.5" width="28.3" height="28.3"/>
<rect y="340.2" width="28.3" height="28.3"/>
<rect x="28.3" y="340.2" width="28.3" height="28.3"/>
<rect x="56.7" y="340.2" width="28.3" height="28.3"/>
<rect x="85" y="340.2" class="st1" width="28.3" height="28.3"/>
<rect x="113.4" y="340.2" class="st1" width="28.3" height="28.3"/>
<rect x="141.7" y="340.2" class="st2" width="28.3" height="28.3"/>
<rect x="170.1" y="340.2" class="st2" width="28.3" height="28.3"/>
<rect x="198.4" y="340.2" class="st2" width="28.3" height="28.3"/>
<rect x="226.8" y="340.2" class="st2" width="28.3" height="28.3"/>
<rect x="255.1" y="340.2" class="st2" width="28.3" height="28.3"/>
<rect x="283.5" y="340.2" class="st2" width="28.3" height="28.3"/>
<rect x="311.8" y="340.2" class="st2" width="28.3" height="28.3"/>
<rect x="340.2" y="340.2" class="st2" width="28.3" height="28.3"/>
<rect x="368.5" y="340.2" class="st2" width="28.3" height="28.3"/>
<rect x="396.9" y="340.2" class="st1" width="28.3" height="28.3"/>
<rect x="425.2" y="340.2" class="st1" width="28.3" height="28.3"/>
<rect x="453.5" y="340.2" width="28.3" height="28.3"/>
<rect x="481.9" y="340.2" width="28.3" height="28.3"/>
<rect x="510.2" y="340.2" width="28.3" height="28.3"/>
<rect y="396.9" width="28.3" height="28.3"/>
<rect x="28.3" y="396.9" width="28.3" height="28.3"/>
<rect x="56.7" y="396.9" width="28.3" height="28.3"/>
<rect x="85" y="396.9" class="st1" width="28.3" height="28.3"/>
<rect x="113.4" y="396.9" class="st1" width="28.3" height="28.3"/>
<rect x="141.7" y="396.9" class="st2" width="28.3" height="28.3"/>
<rect x="170.1" y="396.9" class="st2" width="28.3" height="28.3"/>
<rect x="198.4" y="396.9" class="st2" width="28.3" height="28.3"/>
<rect x="226.8" y="396.9" class="st2" width="28.3" height="28.3"/>
<rect x="255.1" y="396.9" class="st2" width="28.3" height="28.3"/>
<rect x="283.5" y="396.9" class="st2" width="28.3" height="28.3"/>
<rect x="311.8" y="396.9" class="st2" width="28.3" height="28.3"/>
<rect x="340.2" y="396.9" class="st2" width="28.3" height="28.3"/>
<rect x="368.5" y="396.9" class="st2" width="28.3" height="28.3"/>
<rect x="396.9" y="396.9" class="st1" width="28.3" height="28.3"/>
<rect x="425.2" y="396.9" class="st1" width="28.3" height="28.3"/>
<rect x="453.5" y="396.9" width="28.3" height="28.3"/>
<rect x="481.9" y="396.9" width="28.3" height="28.3"/>
<rect x="510.2" y="396.9" width="28.3" height="28.3"/>
<rect x="28.3" y="425.2" class="st1" width="28.3" height="28.3"/>
<rect x="56.7" y="425.2" class="st1" width="28.3" height="28.3"/>
<rect x="85" y="425.2" class="st1" width="28.3" height="28.3"/>
<rect x="113.4" y="425.2" class="st1" width="28.3" height="28.3"/>
<rect x="141.7" y="425.2" class="st2" width="28.3" height="28.3"/>
<rect x="170.1" y="425.2" class="st2" width="28.3" height="28.3"/>
<rect x="198.4" y="425.2" class="st2" width="28.3" height="28.3"/>
<rect x="226.8" y="425.2" class="st2" width="28.3" height="28.3"/>
<rect x="255.1" y="425.2" class="st2" width="28.3" height="28.3"/>
<rect x="283.5" y="425.2" class="st2" width="28.3" height="28.3"/>
<rect x="311.8" y="425.2" class="st2" width="28.3" height="28.3"/>
<rect x="340.2" y="425.2" class="st2" width="28.3" height="28.3"/>
<rect x="368.5" y="425.2" class="st2" width="28.3" height="28.3"/>
<rect x="396.9" y="425.2" class="st1" width="28.3" height="28.3"/>
<rect x="425.2" y="425.2" class="st1" width="28.3" height="28.3"/>
<rect x="453.5" y="425.2" class="st1" width="28.3" height="28.3"/>
<rect x="481.9" y="425.2" class="st1" width="28.3" height="28.3"/>
<rect x="28.3" y="453.5" class="st1" width="28.3" height="28.3"/>
<rect x="56.7" y="453.5" class="st1" width="28.3" height="28.3"/>
<rect x="85" y="453.5" class="st1" width="28.3" height="28.3"/>
<rect x="113.4" y="453.5" class="st1" width="28.3" height="28.3"/>
<rect x="141.7" y="453.5" class="st2" width="28.3" height="28.3"/>
<rect x="170.1" y="453.5" class="st2" width="28.3" height="28.3"/>
<rect x="198.4" y="453.5" class="st2" width="28.3" height="28.3"/>
<rect x="226.8" y="453.5" class="st2" width="28.3" height="28.3"/>
<rect x="255.1" y="453.5" class="st2" width="28.3" height="28.3"/>
<rect x="283.5" y="453.5" class="st2" width="28.3" height="28.3"/>
<rect x="311.8" y="453.5" class="st2" width="28.3" height="28.3"/>
<rect x="340.2" y="453.5" class="st2" width="28.3" height="28.3"/>
<rect x="368.5" y="453.5" class="st2" width="28.3" height="28.3"/>
<rect x="396.9" y="453.5" class="st1" width="28.3" height="28.3"/>
<rect x="425.2" y="453.5" class="st1" width="28.3" height="28.3"/>
<rect x="453.5" y="453.5" class="st1" width="28.3" height="28.3"/>
<rect x="481.9" y="453.5" class="st1" width="28.3" height="28.3"/>
<rect x="85" y="481.9" class="st3" width="28.3" height="28.3"/>
<rect x="113.4" y="481.9" class="st3" width="28.3" height="28.3"/>
<rect x="141.7" y="481.9" class="st3" width="28.3" height="28.3"/>
<rect x="170.1" y="481.9" class="st3" width="28.3" height="28.3"/>
<rect x="198.4" y="481.9" class="st2" width="28.3" height="28.3"/>
<rect x="226.8" y="481.9" class="st2" width="28.3" height="28.3"/>
<rect x="255.1" y="481.9" class="st2" width="28.3" height="28.3"/>
<rect x="283.5" y="481.9" class="st2" width="28.3" height="28.3"/>
<rect x="311.8" y="481.9" class="st2" width="28.3" height="28.3"/>
<rect x="340.2" y="481.9" class="st3" width="28.3" height="28.3"/>
<rect x="368.5" y="481.9" class="st3" width="28.3" height="28.3"/>
<rect x="396.9" y="481.9" class="st3" width="28.3" height="28.3"/>
<rect x="425.2" y="481.9" class="st3" width="28.3" height="28.3"/>
<rect x="85" y="510.2" class="st3" width="28.3" height="28.3"/>
<rect x="113.4" y="510.2" class="st3" width="28.3" height="28.3"/>
<rect x="141.7" y="510.2" class="st3" width="28.3" height="28.3"/>
<rect x="170.1" y="510.2" class="st3" width="28.3" height="28.3"/>
<rect x="340.2" y="510.2" class="st3" width="28.3" height="28.3"/>
<rect x="368.5" y="510.2" class="st3" width="28.3" height="28.3"/>
<rect x="396.9" y="510.2" class="st3" width="28.3" height="28.3"/>
<rect x="425.2" y="510.2" class="st3" width="28.3" height="28.3"/>
</svg>
